<?xml version="1.0" encoding="utf-8"?>
<!-- Generator: Adobe Illustrator 22.0.0, SVG Export Plug-In . SVG Version: 6.00 Build 0)  -->
<svg version="1.1" id="Layer_1" xmlns="http://www.w3.org/2000/svg" xmlns:xlink="http://www.w3.org/1999/xlink" x="0px" y="0px"
	 viewBox="0 0 60 60" style="enable-background:new 0 0 60 60;" xml:space="preserve">
<g>
	<path d="M54.8,0H5C2.3,0,0,2.3,0,5v14.9c0,2.7,2.3,5,5,5h20.8v6.8l-4.5,4.5c-0.3,0.3-0.5,0.7-0.5,1.2V49c0,0.5,0.2,0.9,0.5,1.2
		l4.5,4.5v2.7c0,0.9,0.7,1.7,1.7,1.7c0.9,0,1.7-0.7,1.7-1.7V54c0-0.5-0.2-0.9-0.5-1.2l-4.5-4.5V38l1.7-1.7V44c0,0.9,0.7,1.7,1.7,1.7
		c0.9,0,1.7-0.7,1.7-1.7V22c0-0.5,0.4-0.9,0.9-0.9c0.5,0,0.9,0.4,0.9,0.9v15.3c0,0.9,0.7,1.7,1.7,1.7c0.9,0,1.7-0.7,1.7-1.7v-6.6
		c0-0.5,0.4-0.9,0.9-0.9c0.5,0,0.9,0.4,0.9,0.9v6.6c0,0.9,0.7,1.7,1.7,1.7c0.9,0,1.7-0.7,1.7-1.7v-4.1c0-0.5,0.4-0.9,0.9-0.9
		s0.9,0.4,0.9,0.9v4.2c0,0.9,0.7,1.7,1.7,1.7c0.9,0,1.7-0.7,1.7-1.7v-1.7c0-0.5,0.4-0.9,0.9-0.9s0.9,0.4,0.9,0.9v13l-1.6,4.7
		c-0.1,0.2-0.1,0.3-0.1,0.5v2.1v1.2c0,0.9,0.7,1.7,1.7,1.7c0.9,0,1.7-0.7,1.7-1.7v-3.1l1.6-4.7c0.1-0.2,0.1-0.3,0.1-0.5V35.7
		c0-2.3-1.9-4.2-4.2-4.2c-0.4,0-0.7,0.1-1.1,0.1c-0.6-1.5-2.1-2.7-3.8-2.7c-0.4,0-0.7,0.1-1.1,0.1c-0.6-1.5-2.1-2.7-3.8-2.7
		c-0.3,0-0.5,0-0.9,0.1v-1.7H55c2.7,0,5-2.3,5-5V5C59.7,2.3,57.5,0,54.8,0z M56.4,19.9c0,0.9-0.7,1.7-1.7,1.7H34
		c-0.1-1-0.5-1.9-1.2-2.5H39v-3.3H20.8V19h6.2c-0.7,0.7-1.1,1.5-1.2,2.5H5c-0.9,0-1.7-0.7-1.7-1.7V5C3.3,4,4,3.3,5,3.3h49.8
		c0.9,0,1.7,0.7,1.7,1.7V19.9z"/>
	<rect x="30.7" y="10.8" width="3.3" height="3.3"/>
	<rect x="25.8" y="10.8" width="3.3" height="3.3"/>
	<rect x="20.8" y="10.8" width="3.3" height="3.3"/>
	<rect x="30.7" y="5.8" width="3.3" height="3.3"/>
	<rect x="25.8" y="5.8" width="3.3" height="3.3"/>
	<rect x="20.8" y="5.8" width="3.3" height="3.3"/>
	<rect x="35.7" y="10.8" width="3.3" height="3.3"/>
	<rect x="35.7" y="5.8" width="3.3" height="3.3"/>
	<rect x="15.8" y="15.8" width="3.3" height="3.3"/>
	<rect x="10.8" y="15.8" width="3.3" height="3.3"/>
	<rect x="5.8" y="15.8" width="3.3" height="3.3"/>
	<rect x="15.8" y="10.8" width="3.3" height="3.3"/>
	<rect x="10.8" y="10.8" width="3.3" height="3.3"/>
	<rect x="5.8" y="10.8" width="3.3" height="3.3"/>
	<rect x="15.8" y="5.8" width="3.3" height="3.3"/>
	<rect x="10.8" y="5.8" width="3.3" height="3.3"/>
	<rect x="5.8" y="5.8" width="3.3" height="3.3"/>
	<rect x="50.6" y="15.8" width="3.3" height="3.3"/>
	<rect x="45.7" y="15.8" width="3.3" height="3.3"/>
	<rect x="40.7" y="15.8" width="3.3" height="3.3"/>
	<rect x="50.6" y="10.8" width="3.3" height="3.3"/>
	<rect x="45.7" y="10.8" width="3.3" height="3.3"/>
	<rect x="40.7" y="10.8" width="3.3" height="3.3"/>
	<rect x="50.6" y="5.8" width="3.3" height="3.3"/>
	<rect x="45.7" y="5.8" width="3.3" height="3.3"/>
	<rect x="40.7" y="5.8" width="3.3" height="3.3"/>
</g>
</svg>
