<?xml version="1.0" encoding="utf-8"?>
<!-- Generator: Adobe Illustrator 22.0.0, SVG Export Plug-In . SVG Version: 6.00 Build 0)  -->
<svg version="1.1" id="Layer_1" xmlns="http://www.w3.org/2000/svg" xmlns:xlink="http://www.w3.org/1999/xlink" x="0px" y="0px"
	 viewBox="0 0 176 400" style="enable-background:new 0 0 176 400;" xml:space="preserve">
<style type="text/css">
	.st0{fill:#0A1E1E;}
	.st1{fill:#082225;}
	.st2{fill:#FEECB9;}
	.st3{fill:#14545C;}
</style>
<title>sadly</title>
<path class="st0" d="M108,104H68c-10.7,14.2-10.7,33.8,0,48h40C97.3,137.8,97.3,118.2,108,104z"/>
<path class="st1" d="M40,168c44.2,0,136-17.9,136-40H40V168z"/>
<path class="st2" d="M118.4,130.4h4.8V128h-4.8V130.4z M108.8,130.4h4.8V128h-4.8V130.4z M99.2,130.4h4.8V128h-4.8L99.2,130.4z
	 M89.6,130.4h4.8V128h-4.8L89.6,130.4z M137.6,130.4h4.8V128h-4.8V130.4z M156.8,130.4h4.8V128h-4.8V130.4z M166.4,128v2.4h4.8V128
	L166.4,128z M128,130.4h4.8V128H128V130.4z M147.2,130.4h4.8V128h-4.8V130.4z"/>
<path class="st1" d="M40,88c44.2,0,136,17.9,136,40H40V88z"/>
<path class="st2" d="M118.4,128h4.8v-2.4h-4.8V128z M108.8,128h4.8v-2.4h-4.8V128z M99.2,128h4.8v-2.4h-4.8L99.2,128z M89.6,128h4.8
	v-2.4h-4.8L89.6,128z M137.6,128h4.8v-2.4h-4.8V128z M156.8,128h4.8v-2.4h-4.8V128z M171.2,128v-2.4h-4.8v2.4H171.2z M128,128h4.8
	v-2.4H128V128z M147.2,128h4.8v-2.4h-4.8V128z"/>
<polygon class="st1" points="83.4,164.3 83.4,164.3 176,328 0,328 0,164.3 0,128 "/>
<circle class="st1" cx="40" cy="128" r="40"/>
<circle class="st2" cx="56" cy="112" r="12"/>
<circle class="st3" cx="56" cy="112" r="8"/>
<polygon class="st2" points="20,268 20,284 23.2,284 23.2,271.2 26.4,271.2 26.4,284 29.6,284 29.6,271.2 32.8,271.2 32.8,284 
	36,284 36,268 "/>
<rect x="16" y="228" class="st3" width="20" height="40"/>
<rect x="32" y="72" class="st1" width="48" height="8"/>
<rect x="39.6" class="st1" width="32" height="72"/>
</svg>
