<svg id="Layer_1" data-name="Layer 1" xmlns="http://www.w3.org/2000/svg" viewBox="0 0 176 400"><defs><style>.cls-1{fill:#0a1e1e;}.cls-2{fill:#082225;}.cls-3{fill:#feecb9;}.cls-4{fill:#14545c;}</style></defs><title>sadly</title><path class="cls-1" d="M108,104H68a40,40,0,0,0,0,48h40a40,40,0,0,1,0-48Z"/><path class="cls-2" d="M40,168c44.18,0,136-17.91,136-40H40Z"/><path class="cls-3" d="M118.4,130.4h4.8V128h-4.8Zm-9.6,0h4.8V128h-4.8Zm-9.6,0H104V128H99.2Zm-9.6,0h4.8V128H89.6Zm48,0h4.8V128h-4.8Zm19.2,0h4.8V128h-4.8Zm9.6-2.4v2.4h4.8V128ZM128,130.4h4.8V128H128Zm19.2,0H152V128h-4.8Z"/><path class="cls-2" d="M40,88c44.18,0,136,17.91,136,40H40Z"/><path class="cls-3" d="M118.4,128h4.8v-2.4h-4.8Zm-9.6,0h4.8v-2.4h-4.8Zm-9.6,0H104v-2.4H99.2Zm-9.6,0h4.8v-2.4H89.6Zm48,0h4.8v-2.4h-4.8Zm19.2,0h4.8v-2.4h-4.8Zm14.4,0v-2.4h-4.8V128ZM128,128h4.8v-2.4H128Zm19.2,0H152v-2.4h-4.8Z"/><polygon class="cls-2" points="83.44 164.27 83.44 164.27 176 328 0 328 0 164.27 0 128 83.44 164.27"/><polygon class="cls-2" points="48 368 48 336 16 336 16 400 80 400 48 368"/><polygon class="cls-2" points="128 368 128 336 96 336 96 400 160 400 128 368"/><circle class="cls-2" cx="40" cy="128" r="40"/><circle class="cls-3" cx="56" cy="112" r="12"/><circle class="cls-4" cx="56" cy="112" r="8"/><polygon class="cls-3" points="20 268 20 284 23.2 284 23.2 271.2 26.4 271.2 26.4 284 29.6 284 29.6 271.2 32.8 271.2 32.8 284 36 284 36 268 20 268"/><rect class="cls-4" x="16" y="228" width="20" height="40"/><rect class="cls-2" x="32" y="72" width="48" height="8"/><rect class="cls-2" x="39.6" width="32" height="72"/></svg>