<svg id="Layer_1" data-name="Layer 1" xmlns="http://www.w3.org/2000/svg" viewBox="0 0 40 60"><defs><style>.cls-1{fill:#082225;}.cls-2{fill:#fe4a49;}</style></defs><title>speech</title><rect class="cls-1" width="40" height="40"/><path class="cls-2" d="M17,24.87a.7.7,0,0,1-.22-.51,7.24,7.24,0,0,1,0-.77A6.2,6.2,0,0,1,18,20.88a22.71,22.71,0,0,1,2.43-2.71,18.33,18.33,0,0,0,1.72-1.85,2.59,2.59,0,0,0,.62-1.48,1.84,1.84,0,0,0-.67-1.72,3,3,0,0,0-2-.66,3.08,3.08,0,0,0-3.33,2.6,1.9,1.9,0,0,1-.44.66,1.15,1.15,0,0,1-.74.22H10.86a.78.78,0,0,1-.6-.28A1,1,0,0,1,10,15a7.38,7.38,0,0,1,1.28-3.81,8.75,8.75,0,0,1,3.59-3A12.91,12.91,0,0,1,20.57,7,12.43,12.43,0,0,1,26,8a7.08,7.08,0,0,1,3,2.55,5.78,5.78,0,0,1,.92,3,6.21,6.21,0,0,1-.84,3.26A21.12,21.12,0,0,1,26.72,20c-.66.73-1.16,1.32-1.5,1.76a6.39,6.39,0,0,0-.84,1.43,3.91,3.91,0,0,0-.26.91,3.11,3.11,0,0,1-.53.77.89.89,0,0,1-.64.22H17.53A.67.67,0,0,1,17,24.87ZM17,32.74a.87.87,0,0,1-.27-.66V27.73a.94.94,0,0,1,.95-1h4.91a.93.93,0,0,1,.67.28.9.9,0,0,1,.28.68v4.35a.84.84,0,0,1-.28.66,1,1,0,0,1-.67.26H17.64A1,1,0,0,1,17,32.74Z"/><polygon class="cls-1" points="20 60 20 40 40 40 20 60"/></svg>